<svg id="svg" version="1.1" xmlns="http://www.w3.org/2000/svg" xmlns:xlink="http://www.w3.org/1999/xlink" width="400" height="400" viewBox="0, 0, 400,400"><g id="svgg"><path id="path0" d="M191.602 61.733 C 161.759 65.135,140.122 83.469,134.915 109.766 C 134.244 113.151,134.187 115.286,134.260 134.082 L 134.341 154.688 129.377 154.694 C 115.834 154.713,107.040 161.512,104.881 173.633 C 103.941 178.909,104.072 209.604,105.055 214.366 C 106.290 220.352,109.810 226.532,113.002 228.320 C 113.662 228.690,113.646 228.887,112.697 232.031 C 106.190 253.578,109.239 279.949,120.476 299.320 C 152.916 355.243,245.216 356.089,278.597 300.770 C 290.577 280.917,293.955 254.296,287.358 231.727 L 286.412 228.492 287.474 227.943 C 290.233 226.516,293.358 221.301,295.001 215.382 C 296.025 211.695,296.555 181.818,295.709 175.464 C 293.924 162.048,285.129 154.715,270.801 154.694 L 266.016 154.688 266.009 138.184 C 265.999 111.490,265.088 105.398,259.452 94.347 C 248.026 71.943,220.040 58.491,191.602 61.733 M213.039 71.859 C 237.718 76.764,254.116 93.497,256.245 115.948 C 256.679 120.528,256.790 148.453,256.390 152.286 L 256.139 154.688 199.944 154.688 L 143.750 154.688 143.750 134.223 C 143.750 109.484,144.182 106.435,148.915 97.736 C 159.850 77.639,186.997 66.684,213.039 71.859 M162.795 99.123 C 159.679 101.055,160.103 105.842,163.515 107.268 C 165.476 108.087,234.939 108.077,236.901 107.257 C 239.717 106.081,240.381 102.021,238.125 99.766 L 236.797 98.438 200.332 98.448 C 166.690 98.457,163.784 98.510,162.795 99.123 M162.574 116.807 C 159.667 118.579,159.608 122.583,162.460 124.499 L 163.787 125.391 199.680 125.391 C 238.993 125.391,237.613 125.471,238.841 123.097 C 240.024 120.811,239.212 117.689,237.160 116.628 C 235.073 115.548,164.360 115.718,162.574 116.807 M162.798 134.205 C 160.250 135.588,159.783 139.158,161.875 141.250 L 163.203 142.578 200.000 142.578 L 236.797 142.578 238.125 141.250 C 240.352 139.023,239.859 135.602,237.105 134.177 C 235.409 133.300,164.416 133.327,162.798 134.205 M134.113 193.066 C 133.984 208.589,133.737 221.249,133.564 221.199 C 133.063 221.056,121.073 221.865,120.108 222.107 C 118.021 222.631,115.054 218.443,113.623 212.951 C 112.562 208.878,112.487 178.847,113.530 175.327 C 115.740 167.864,120.255 164.922,129.575 164.870 L 134.346 164.844 134.113 193.066 M256.158 203.027 C 256.021 245.134,256.118 243.389,253.492 251.387 C 240.404 291.254,173.474 297.380,150.624 260.803 C 144.000 250.198,143.750 248.023,143.750 200.909 L 143.750 164.844 200.016 164.844 L 256.282 164.844 256.158 203.027 M279.063 166.175 C 283.413 168.303,286.233 172.365,287.089 177.734 C 287.745 181.845,287.607 207.823,286.913 211.133 C 285.587 217.451,282.278 222.706,279.988 222.132 C 278.531 221.766,266.791 221.051,266.383 221.303 C 266.155 221.444,266.016 210.781,266.016 193.143 L 266.016 164.755 271.390 164.903 C 276.361 165.039,276.937 165.135,279.063 166.175 M193.779 173.058 C 165.535 178.982,158.161 215.967,182.057 231.853 C 208.768 249.611,242.909 220.595,229.496 191.533 C 223.347 178.209,207.732 170.131,193.779 173.058 M207.422 182.791 C 224.318 188.589,228.740 210.109,215.497 222.093 C 200.678 235.504,176.889 224.920,176.813 204.883 C 176.752 189.041,192.505 177.672,207.422 182.791 M133.984 233.008 C 134.062 269.218,161.380 294.552,200.369 294.571 C 237.311 294.590,263.485 271.633,265.707 237.264 L 266.164 230.193 271.604 229.945 C 278.076 229.651,277.457 229.366,278.462 233.101 C 283.341 251.239,281.955 271.861,274.777 287.930 C 246.942 350.240,143.347 345.696,122.504 281.250 C 117.723 266.470,117.479 246.551,121.902 232.230 L 122.667 229.756 128.322 229.819 L 133.978 229.883 133.984 233.008 " stroke="none" fill="#faf3bf" fill-rule="evenodd"></path><path id="path1" d="M0.000 200.000 L 0.000 400.000 200.000 400.000 L 400.000 400.000 400.000 200.000 L 400.000 0.000 200.000 0.000 L 0.000 0.000 0.000 200.000 M210.547 61.925 C 238.677 65.923,259.673 83.980,264.606 108.419 C 265.770 114.182,266.002 118.886,266.009 136.816 L 266.016 154.688 271.402 154.688 C 283.774 154.688,291.443 160.110,295.158 171.484 C 296.026 174.142,296.478 207.288,295.713 212.215 C 294.736 218.517,291.305 225.584,288.240 227.613 C 287.403 228.166,286.719 228.671,286.719 228.735 C 286.719 228.798,287.161 230.489,287.701 232.491 C 293.006 252.163,291.438 273.707,283.377 291.888 C 254.358 357.338,149.248 358.892,117.754 294.336 C 108.336 275.031,106.432 249.838,112.957 230.863 C 113.467 229.379,113.559 228.673,113.255 228.572 C 110.276 227.579,106.215 220.628,104.891 214.257 C 104.002 209.977,103.992 177.137,104.878 172.924 C 107.294 161.445,115.208 155.128,127.613 154.776 L 133.937 154.597 134.085 133.060 L 134.234 111.523 135.250 107.422 C 142.960 76.287,175.072 56.884,210.547 61.925 M193.750 70.979 C 169.738 72.889,150.659 87.414,145.014 108.081 L 143.968 111.914 143.840 133.301 L 143.713 154.687 200.006 154.688 L 256.299 154.688 256.160 133.496 L 256.022 112.305 254.971 108.519 C 248.045 83.559,223.653 68.602,193.750 70.979 M238.024 99.240 C 240.121 100.889,240.137 104.714,238.055 106.670 L 237.047 107.617 200.360 107.721 L 163.673 107.824 162.281 106.549 C 159.881 104.349,160.030 100.780,162.588 99.220 C 164.628 97.977,236.441 97.995,238.024 99.240 M237.945 117.122 C 239.946 118.910,240.053 122.135,238.173 124.015 L 236.797 125.391 200.197 125.391 C 166.400 125.391,163.511 125.340,162.469 124.724 C 160.368 123.483,159.566 120.455,160.790 118.383 C 162.263 115.890,159.811 116.037,200.091 116.026 L 236.706 116.016 237.945 117.122 M237.854 134.599 C 240.516 136.839,240.136 140.769,237.109 142.288 C 234.785 143.454,163.831 143.139,162.236 141.955 C 159.814 140.157,159.780 136.591,162.165 134.583 L 163.341 133.594 200.000 133.594 L 236.659 133.594 237.854 134.599 M123.410 165.378 C 118.287 166.759,114.510 170.920,113.330 176.484 C 112.774 179.101,112.731 208.009,113.278 210.982 C 113.976 214.780,115.632 218.725,117.236 220.411 L 118.738 221.989 121.576 221.730 C 123.137 221.587,126.567 221.359,129.199 221.223 L 133.984 220.975 133.984 192.909 L 133.984 164.844 129.590 164.870 C 127.173 164.885,124.392 165.113,123.410 165.378 M143.762 198.535 C 143.776 235.804,144.000 242.396,145.450 248.076 C 157.107 293.749,234.200 298.301,252.307 254.385 C 255.998 245.434,256.247 241.982,256.249 199.707 L 256.250 164.844 200.000 164.844 L 143.750 164.844 143.762 198.535 M266.016 192.918 L 266.016 221.094 268.262 221.093 C 269.497 221.092,272.822 221.290,275.650 221.534 C 282.472 222.120,283.656 221.306,285.946 214.453 C 287.774 208.984,287.802 178.358,285.983 173.732 C 283.663 167.828,279.245 165.196,271.191 164.920 L 266.016 164.742 266.016 192.918 M207.348 173.250 C 227.832 178.074,238.256 200.372,228.914 219.384 C 221.048 235.395,201.066 241.985,185.213 233.797 C 160.392 220.978,162.226 184.656,188.200 174.668 C 190.833 173.655,192.135 173.328,196.875 172.493 C 198.564 172.196,204.779 172.644,207.348 173.250 M194.622 182.396 C 177.071 186.707,170.915 208.286,183.586 221.074 C 195.852 233.453,216.805 228.312,222.074 211.632 C 227.444 194.633,211.955 178.137,194.622 182.396 M121.911 232.583 C 115.430 254.414,119.037 280.352,131.076 298.487 C 156.620 336.966,220.699 343.726,257.244 311.797 C 278.109 293.568,286.958 259.265,277.922 231.641 L 277.347 229.883 271.741 230.000 L 266.135 230.117 265.907 236.253 C 264.563 272.383,233.541 297.822,194.742 294.612 C 159.287 291.678,135.285 268.722,134.110 236.621 L 133.870 230.078 128.881 230.078 C 126.137 230.078,123.642 229.982,123.336 229.865 C 122.926 229.707,122.553 230.418,121.911 232.583 " stroke="none" fill="#131313" fill-rule="evenodd"></path><path id="path2" d="M256.423 132.227 C 256.423 138.672,256.476 141.363,256.542 138.208 C 256.608 135.052,256.608 129.779,256.542 126.489 C 256.477 123.199,256.423 125.781,256.423 132.227 M181.934 142.871 C 191.870 142.929,208.130 142.929,218.066 142.871 C 228.003 142.813,219.873 142.765,200.000 142.765 C 180.127 142.765,171.997 142.813,181.934 142.871 M176.733 182.129 L 175.586 183.398 176.855 182.251 C 177.554 181.620,178.125 181.049,178.125 180.982 C 178.125 180.680,177.803 180.946,176.733 182.129 M287.277 190.625 C 287.277 195.674,287.333 197.739,287.401 195.215 C 287.469 192.690,287.469 188.560,287.401 186.035 C 287.333 183.511,287.277 185.576,287.277 190.625 M223.138 204.688 C 223.138 205.439,223.218 205.747,223.316 205.371 C 223.414 204.995,223.414 204.380,223.316 204.004 C 223.218 203.628,223.138 203.936,223.138 204.688 M143.856 235.938 C 143.856 236.904,143.933 237.300,144.026 236.816 C 144.119 236.333,144.119 235.542,144.026 235.059 C 143.933 234.575,143.856 234.971,143.856 235.938 M109.091 254.297 C 109.091 255.264,109.167 255.659,109.260 255.176 C 109.353 254.692,109.353 253.901,109.260 253.418 C 109.167 252.935,109.091 253.330,109.091 254.297 M290.761 255.859 C 290.761 257.686,290.829 258.433,290.911 257.520 C 290.993 256.606,290.993 255.112,290.911 254.199 C 290.829 253.286,290.761 254.033,290.761 255.859 M109.091 258.203 C 109.091 259.170,109.167 259.565,109.260 259.082 C 109.353 258.599,109.353 257.808,109.260 257.324 C 109.167 256.841,109.091 257.236,109.091 258.203 " stroke="none" fill="#69654a" fill-rule="evenodd"></path><path id="path3" d="M134.142 147.266 C 134.142 150.596,134.202 151.958,134.275 150.293 C 134.348 148.628,134.348 145.903,134.275 144.238 C 134.202 142.573,134.142 143.936,134.142 147.266 M256.341 144.922 C 256.341 145.674,256.421 145.981,256.519 145.605 C 256.618 145.229,256.618 144.614,256.519 144.238 C 256.421 143.862,256.341 144.170,256.341 144.922 M287.200 180.469 C 287.200 181.221,287.280 181.528,287.379 181.152 C 287.477 180.776,287.477 180.161,287.379 179.785 C 287.280 179.409,287.200 179.717,287.200 180.469 " stroke="none" fill="#828462" fill-rule="evenodd"></path><path id="path4" d="M256.381 148.828 C 256.381 150.439,256.450 151.099,256.535 150.293 C 256.619 149.487,256.619 148.169,256.535 147.363 C 256.450 146.558,256.381 147.217,256.381 148.828 M134.127 168.555 C 134.128 170.703,134.194 171.532,134.273 170.397 C 134.352 169.262,134.351 167.504,134.271 166.491 C 134.191 165.478,134.126 166.406,134.127 168.555 M134.083 174.023 C 134.087 174.883,134.167 175.188,134.261 174.702 C 134.354 174.217,134.351 173.513,134.253 173.140 C 134.155 172.767,134.079 173.164,134.083 174.023 M134.105 177.930 C 134.108 179.219,134.181 179.699,134.267 178.997 C 134.354 178.295,134.353 177.240,134.263 176.653 C 134.174 176.066,134.103 176.641,134.105 177.930 M198.145 294.801 C 198.521 294.899,199.136 294.899,199.512 294.801 C 199.888 294.702,199.580 294.622,198.828 294.622 C 198.076 294.622,197.769 294.702,198.145 294.801 M199.512 332.314 C 200.210 332.400,201.353 332.400,202.051 332.314 C 202.749 332.227,202.178 332.156,200.781 332.156 C 199.385 332.156,198.813 332.227,199.512 332.314 " stroke="none" fill="#8c7c61" fill-rule="evenodd"></path></g></svg>